<mxfile host="app.diagrams.net" modified="2020-04-21T02:56:17.810Z" agent="5.0 (Windows NT 10.0; Win64; x64) AppleWebKit/537.36 (KHTML, like Gecko) Chrome/79.0.3945.88 Safari/537.36" etag="nNE90-XlzvwW8GE3JKqD" version="12.9.14" type="github">
  <diagram id="ItVh4f0J61LWQM_6799-" name="Page-1">
    <mxGraphModel dx="1422" dy="774" grid="1" gridSize="10" guides="1" tooltips="1" connect="1" arrows="1" fold="1" page="1" pageScale="1" pageWidth="827" pageHeight="1169" math="0" shadow="0">
      <root>
        <mxCell id="0" />
        <mxCell id="1" parent="0" />
        <mxCell id="soa0CNPoC3bioCPJzMiO-1" value="&lt;strong style=&quot;box-sizing: border-box ; font-family: &amp;#34;open sans&amp;#34; , &amp;#34;clear sans&amp;#34; , &amp;#34;helvetica neue&amp;#34; , &amp;#34;helvetica&amp;#34; , &amp;#34;arial&amp;#34; , sans-serif ; font-size: 16px&quot;&gt;&lt;span class=&quot;md-plain&quot; style=&quot;box-sizing: border-box&quot;&gt;Coordinator&lt;/span&gt;&lt;/strong&gt;" style="shape=umlLifeline;perimeter=lifelinePerimeter;whiteSpace=wrap;html=1;container=1;collapsible=0;recursiveResize=0;outlineConnect=0;fillColor=#f8cecc;strokeColor=#b85450;" parent="1" vertex="1">
          <mxGeometry x="30" y="210" width="130" height="470" as="geometry" />
        </mxCell>
        <mxCell id="soa0CNPoC3bioCPJzMiO-7" value="&lt;strong style=&quot;box-sizing: border-box ; font-family: &amp;#34;open sans&amp;#34; , &amp;#34;clear sans&amp;#34; , &amp;#34;helvetica neue&amp;#34; , &amp;#34;helvetica&amp;#34; , &amp;#34;arial&amp;#34; , sans-serif ; font-size: 16px ; text-align: left&quot;&gt;&lt;span class=&quot;md-plain&quot; style=&quot;box-sizing: border-box&quot;&gt;Participant1&lt;/span&gt;&lt;/strong&gt;" style="shape=umlLifeline;perimeter=lifelinePerimeter;whiteSpace=wrap;html=1;container=1;collapsible=0;recursiveResize=0;outlineConnect=0;fillColor=#d5e8d4;strokeColor=#82b366;" parent="1" vertex="1">
          <mxGeometry x="270" y="210" width="130" height="470" as="geometry" />
        </mxCell>
        <mxCell id="soa0CNPoC3bioCPJzMiO-9" value="" style="html=1;points=[];perimeter=orthogonalPerimeter;" parent="soa0CNPoC3bioCPJzMiO-7" vertex="1">
          <mxGeometry x="60" y="90" width="10" height="50" as="geometry" />
        </mxCell>
        <mxCell id="soa0CNPoC3bioCPJzMiO-18" value="" style="html=1;points=[];perimeter=orthogonalPerimeter;" parent="soa0CNPoC3bioCPJzMiO-7" vertex="1">
          <mxGeometry x="60" y="300" width="10" height="50" as="geometry" />
        </mxCell>
        <mxCell id="soa0CNPoC3bioCPJzMiO-8" value="&lt;strong style=&quot;box-sizing: border-box ; font-family: &amp;#34;open sans&amp;#34; , &amp;#34;clear sans&amp;#34; , &amp;#34;helvetica neue&amp;#34; , &amp;#34;helvetica&amp;#34; , &amp;#34;arial&amp;#34; , sans-serif ; font-size: 16px ; text-align: left&quot;&gt;&lt;span class=&quot;md-plain&quot; style=&quot;box-sizing: border-box&quot;&gt;Participant2&lt;/span&gt;&lt;/strong&gt;" style="shape=umlLifeline;perimeter=lifelinePerimeter;whiteSpace=wrap;html=1;container=1;collapsible=0;recursiveResize=0;outlineConnect=0;fillColor=#d5e8d4;strokeColor=#82b366;" parent="1" vertex="1">
          <mxGeometry x="510" y="210" width="130" height="470" as="geometry" />
        </mxCell>
        <mxCell id="soa0CNPoC3bioCPJzMiO-13" value="" style="html=1;points=[];perimeter=orthogonalPerimeter;" parent="soa0CNPoC3bioCPJzMiO-8" vertex="1">
          <mxGeometry x="60" y="180" width="10" height="50" as="geometry" />
        </mxCell>
        <mxCell id="soa0CNPoC3bioCPJzMiO-22" value="" style="html=1;points=[];perimeter=orthogonalPerimeter;" parent="soa0CNPoC3bioCPJzMiO-8" vertex="1">
          <mxGeometry x="60" y="390" width="10" height="45" as="geometry" />
        </mxCell>
        <mxCell id="soa0CNPoC3bioCPJzMiO-10" value="Commit Request" style="html=1;verticalAlign=bottom;endArrow=block;entryX=0;entryY=0;" parent="1" source="soa0CNPoC3bioCPJzMiO-1" target="soa0CNPoC3bioCPJzMiO-9" edge="1">
          <mxGeometry relative="1" as="geometry">
            <mxPoint x="240" y="300" as="sourcePoint" />
          </mxGeometry>
        </mxCell>
        <mxCell id="soa0CNPoC3bioCPJzMiO-11" value="Success" style="html=1;verticalAlign=bottom;endArrow=open;dashed=1;endSize=8;exitX=0;exitY=0.95;" parent="1" source="soa0CNPoC3bioCPJzMiO-9" target="soa0CNPoC3bioCPJzMiO-1" edge="1">
          <mxGeometry relative="1" as="geometry">
            <mxPoint x="240" y="376" as="targetPoint" />
          </mxGeometry>
        </mxCell>
        <mxCell id="soa0CNPoC3bioCPJzMiO-12" value="写redo、undo日志、锁定资源、执行操作、不提交" style="text;html=1;strokeColor=none;fillColor=none;align=center;verticalAlign=middle;whiteSpace=wrap;rounded=0;" parent="1" vertex="1">
          <mxGeometry x="340" y="310" width="160" height="20" as="geometry" />
        </mxCell>
        <mxCell id="soa0CNPoC3bioCPJzMiO-14" value="Commit Request" style="html=1;verticalAlign=bottom;endArrow=block;entryX=0;entryY=0;" parent="1" source="soa0CNPoC3bioCPJzMiO-1" target="soa0CNPoC3bioCPJzMiO-13" edge="1">
          <mxGeometry relative="1" as="geometry">
            <mxPoint x="500" y="380" as="sourcePoint" />
          </mxGeometry>
        </mxCell>
        <mxCell id="soa0CNPoC3bioCPJzMiO-15" value="Success" style="html=1;verticalAlign=bottom;endArrow=open;dashed=1;endSize=8;exitX=0;exitY=0.95;" parent="1" source="soa0CNPoC3bioCPJzMiO-13" target="soa0CNPoC3bioCPJzMiO-1" edge="1">
          <mxGeometry relative="1" as="geometry">
            <mxPoint x="500" y="456" as="targetPoint" />
          </mxGeometry>
        </mxCell>
        <mxCell id="soa0CNPoC3bioCPJzMiO-16" value="写redo、undo日志、锁定资源、执行操作，不提交" style="text;html=1;strokeColor=none;fillColor=none;align=center;verticalAlign=middle;whiteSpace=wrap;rounded=0;" parent="1" vertex="1">
          <mxGeometry x="590" y="400" width="160" height="20" as="geometry" />
        </mxCell>
        <mxCell id="soa0CNPoC3bioCPJzMiO-19" value="Commit" style="html=1;verticalAlign=bottom;endArrow=block;entryX=0;entryY=0;" parent="1" source="soa0CNPoC3bioCPJzMiO-1" target="soa0CNPoC3bioCPJzMiO-18" edge="1">
          <mxGeometry relative="1" as="geometry">
            <mxPoint x="260" y="505" as="sourcePoint" />
          </mxGeometry>
        </mxCell>
        <mxCell id="soa0CNPoC3bioCPJzMiO-20" value="Success" style="html=1;verticalAlign=bottom;endArrow=open;dashed=1;endSize=8;exitX=0;exitY=0.95;" parent="1" source="soa0CNPoC3bioCPJzMiO-18" target="soa0CNPoC3bioCPJzMiO-1" edge="1">
          <mxGeometry relative="1" as="geometry">
            <mxPoint x="260" y="581" as="targetPoint" />
          </mxGeometry>
        </mxCell>
        <mxCell id="soa0CNPoC3bioCPJzMiO-21" value="提交操作、释放资源" style="text;html=1;strokeColor=none;fillColor=none;align=center;verticalAlign=middle;whiteSpace=wrap;rounded=0;" parent="1" vertex="1">
          <mxGeometry x="342" y="523" width="120" height="20" as="geometry" />
        </mxCell>
        <mxCell id="soa0CNPoC3bioCPJzMiO-23" value="Commit" style="html=1;verticalAlign=bottom;endArrow=block;entryX=0;entryY=0;" parent="1" target="soa0CNPoC3bioCPJzMiO-22" edge="1">
          <mxGeometry relative="1" as="geometry">
            <mxPoint x="94.5" y="600" as="sourcePoint" />
          </mxGeometry>
        </mxCell>
        <mxCell id="soa0CNPoC3bioCPJzMiO-24" value="Success" style="html=1;verticalAlign=bottom;endArrow=open;dashed=1;endSize=8;exitX=0;exitY=0.95;" parent="1" source="soa0CNPoC3bioCPJzMiO-22" target="soa0CNPoC3bioCPJzMiO-1" edge="1">
          <mxGeometry relative="1" as="geometry">
            <mxPoint x="500" y="676" as="targetPoint" />
          </mxGeometry>
        </mxCell>
        <mxCell id="soa0CNPoC3bioCPJzMiO-25" value="提交操作、释放资源" style="text;html=1;strokeColor=none;fillColor=none;align=center;verticalAlign=middle;whiteSpace=wrap;rounded=0;" parent="1" vertex="1">
          <mxGeometry x="583" y="610" width="120" height="20" as="geometry" />
        </mxCell>
        <mxCell id="soa0CNPoC3bioCPJzMiO-26" value="&lt;strong style=&quot;box-sizing: border-box ; font-family: &amp;#34;open sans&amp;#34; , &amp;#34;clear sans&amp;#34; , &amp;#34;helvetica neue&amp;#34; , &amp;#34;helvetica&amp;#34; , &amp;#34;arial&amp;#34; , sans-serif ; font-size: 16px&quot;&gt;&lt;span class=&quot;md-plain&quot; style=&quot;box-sizing: border-box&quot;&gt;Coordinator&lt;/span&gt;&lt;/strong&gt;" style="shape=umlLifeline;perimeter=lifelinePerimeter;whiteSpace=wrap;html=1;container=1;collapsible=0;recursiveResize=0;outlineConnect=0;fillColor=#f8cecc;strokeColor=#b85450;" parent="1" vertex="1">
          <mxGeometry x="920" y="210" width="130" height="470" as="geometry" />
        </mxCell>
        <mxCell id="soa0CNPoC3bioCPJzMiO-27" value="&lt;strong style=&quot;box-sizing: border-box ; font-family: &amp;#34;open sans&amp;#34; , &amp;#34;clear sans&amp;#34; , &amp;#34;helvetica neue&amp;#34; , &amp;#34;helvetica&amp;#34; , &amp;#34;arial&amp;#34; , sans-serif ; font-size: 16px ; text-align: left&quot;&gt;&lt;span class=&quot;md-plain&quot; style=&quot;box-sizing: border-box&quot;&gt;Participant1&lt;/span&gt;&lt;/strong&gt;" style="shape=umlLifeline;perimeter=lifelinePerimeter;whiteSpace=wrap;html=1;container=1;collapsible=0;recursiveResize=0;outlineConnect=0;fillColor=#d5e8d4;strokeColor=#82b366;" parent="1" vertex="1">
          <mxGeometry x="1160" y="210" width="130" height="470" as="geometry" />
        </mxCell>
        <mxCell id="soa0CNPoC3bioCPJzMiO-28" value="" style="html=1;points=[];perimeter=orthogonalPerimeter;" parent="soa0CNPoC3bioCPJzMiO-27" vertex="1">
          <mxGeometry x="60" y="90" width="10" height="50" as="geometry" />
        </mxCell>
        <mxCell id="soa0CNPoC3bioCPJzMiO-29" value="" style="html=1;points=[];perimeter=orthogonalPerimeter;" parent="soa0CNPoC3bioCPJzMiO-27" vertex="1">
          <mxGeometry x="60" y="300" width="10" height="50" as="geometry" />
        </mxCell>
        <mxCell id="soa0CNPoC3bioCPJzMiO-30" value="&lt;strong style=&quot;box-sizing: border-box ; font-family: &amp;#34;open sans&amp;#34; , &amp;#34;clear sans&amp;#34; , &amp;#34;helvetica neue&amp;#34; , &amp;#34;helvetica&amp;#34; , &amp;#34;arial&amp;#34; , sans-serif ; font-size: 16px ; text-align: left&quot;&gt;&lt;span class=&quot;md-plain&quot; style=&quot;box-sizing: border-box&quot;&gt;Participant2&lt;/span&gt;&lt;/strong&gt;" style="shape=umlLifeline;perimeter=lifelinePerimeter;whiteSpace=wrap;html=1;container=1;collapsible=0;recursiveResize=0;outlineConnect=0;fillColor=#d5e8d4;strokeColor=#82b366;" parent="1" vertex="1">
          <mxGeometry x="1400" y="210" width="130" height="470" as="geometry" />
        </mxCell>
        <mxCell id="soa0CNPoC3bioCPJzMiO-31" value="" style="html=1;points=[];perimeter=orthogonalPerimeter;" parent="soa0CNPoC3bioCPJzMiO-30" vertex="1">
          <mxGeometry x="60" y="180" width="10" height="50" as="geometry" />
        </mxCell>
        <mxCell id="soa0CNPoC3bioCPJzMiO-32" value="" style="html=1;points=[];perimeter=orthogonalPerimeter;" parent="soa0CNPoC3bioCPJzMiO-30" vertex="1">
          <mxGeometry x="60" y="390" width="10" height="45" as="geometry" />
        </mxCell>
        <mxCell id="soa0CNPoC3bioCPJzMiO-47" value="" style="shape=umlDestroy;whiteSpace=wrap;html=1;strokeWidth=3;strokeColor=#FF0000;" parent="soa0CNPoC3bioCPJzMiO-30" vertex="1">
          <mxGeometry x="55" y="195" width="20" height="20" as="geometry" />
        </mxCell>
        <mxCell id="soa0CNPoC3bioCPJzMiO-33" value="Commit Request" style="html=1;verticalAlign=bottom;endArrow=block;entryX=0;entryY=0;" parent="1" source="soa0CNPoC3bioCPJzMiO-26" target="soa0CNPoC3bioCPJzMiO-28" edge="1">
          <mxGeometry relative="1" as="geometry">
            <mxPoint x="1130" y="300" as="sourcePoint" />
          </mxGeometry>
        </mxCell>
        <mxCell id="soa0CNPoC3bioCPJzMiO-34" value="Success" style="html=1;verticalAlign=bottom;endArrow=open;dashed=1;endSize=8;exitX=0;exitY=0.95;" parent="1" source="soa0CNPoC3bioCPJzMiO-28" target="soa0CNPoC3bioCPJzMiO-26" edge="1">
          <mxGeometry relative="1" as="geometry">
            <mxPoint x="1130" y="376" as="targetPoint" />
          </mxGeometry>
        </mxCell>
        <mxCell id="soa0CNPoC3bioCPJzMiO-35" value="写redo、undo日志、锁定资源、执行操作、不提交" style="text;html=1;strokeColor=none;fillColor=none;align=center;verticalAlign=middle;whiteSpace=wrap;rounded=0;" parent="1" vertex="1">
          <mxGeometry x="1230" y="310" width="160" height="20" as="geometry" />
        </mxCell>
        <mxCell id="soa0CNPoC3bioCPJzMiO-36" value="Commit Request" style="html=1;verticalAlign=bottom;endArrow=block;entryX=0;entryY=0;" parent="1" source="soa0CNPoC3bioCPJzMiO-26" target="soa0CNPoC3bioCPJzMiO-31" edge="1">
          <mxGeometry relative="1" as="geometry">
            <mxPoint x="1390" y="380" as="sourcePoint" />
          </mxGeometry>
        </mxCell>
        <mxCell id="soa0CNPoC3bioCPJzMiO-37" value="&lt;font color=&quot;#ff0000&quot;&gt;&lt;b&gt;Failed&lt;/b&gt;&lt;/font&gt;" style="html=1;verticalAlign=bottom;endArrow=open;dashed=1;endSize=8;exitX=0;exitY=0.95;" parent="1" source="soa0CNPoC3bioCPJzMiO-31" target="soa0CNPoC3bioCPJzMiO-26" edge="1">
          <mxGeometry relative="1" as="geometry">
            <mxPoint x="1390" y="456" as="targetPoint" />
          </mxGeometry>
        </mxCell>
        <mxCell id="soa0CNPoC3bioCPJzMiO-38" value="写redo、undo日志、锁定资源、执行操作，不提交" style="text;html=1;strokeColor=none;fillColor=none;align=center;verticalAlign=middle;whiteSpace=wrap;rounded=0;" parent="1" vertex="1">
          <mxGeometry x="1480" y="400" width="160" height="20" as="geometry" />
        </mxCell>
        <mxCell id="soa0CNPoC3bioCPJzMiO-39" value="&lt;span style=&quot;font-family: sans-serif ; text-align: left&quot;&gt;&lt;font style=&quot;font-size: 12px&quot;&gt;RollBack&lt;/font&gt;&lt;/span&gt;" style="html=1;verticalAlign=bottom;endArrow=block;entryX=0;entryY=0;" parent="1" source="soa0CNPoC3bioCPJzMiO-26" target="soa0CNPoC3bioCPJzMiO-29" edge="1">
          <mxGeometry relative="1" as="geometry">
            <mxPoint x="1150" y="505" as="sourcePoint" />
          </mxGeometry>
        </mxCell>
        <mxCell id="soa0CNPoC3bioCPJzMiO-40" value="Success" style="html=1;verticalAlign=bottom;endArrow=open;dashed=1;endSize=8;exitX=0;exitY=0.95;" parent="1" source="soa0CNPoC3bioCPJzMiO-29" target="soa0CNPoC3bioCPJzMiO-26" edge="1">
          <mxGeometry relative="1" as="geometry">
            <mxPoint x="1150" y="581" as="targetPoint" />
          </mxGeometry>
        </mxCell>
        <mxCell id="soa0CNPoC3bioCPJzMiO-41" value="根据undo log执行撤销操作，释放资源" style="text;html=1;strokeColor=none;fillColor=none;align=center;verticalAlign=middle;whiteSpace=wrap;rounded=0;" parent="1" vertex="1">
          <mxGeometry x="1232" y="523" width="120" height="20" as="geometry" />
        </mxCell>
        <mxCell id="soa0CNPoC3bioCPJzMiO-42" value="&lt;span style=&quot;font-family: sans-serif ; font-size: 12px ; text-align: left&quot;&gt;RollBack&lt;/span&gt;" style="html=1;verticalAlign=bottom;endArrow=block;entryX=0;entryY=0;" parent="1" target="soa0CNPoC3bioCPJzMiO-32" edge="1">
          <mxGeometry relative="1" as="geometry">
            <mxPoint x="984.5" y="600" as="sourcePoint" />
          </mxGeometry>
        </mxCell>
        <mxCell id="soa0CNPoC3bioCPJzMiO-43" value="Success" style="html=1;verticalAlign=bottom;endArrow=open;dashed=1;endSize=8;exitX=0;exitY=0.95;" parent="1" source="soa0CNPoC3bioCPJzMiO-32" target="soa0CNPoC3bioCPJzMiO-26" edge="1">
          <mxGeometry relative="1" as="geometry">
            <mxPoint x="1390" y="676" as="targetPoint" />
          </mxGeometry>
        </mxCell>
        <mxCell id="BWfN3rafUz5-IUtCyvxJ-2" value="根据undo log执行撤销操作，释放资源" style="text;html=1;strokeColor=none;fillColor=none;align=center;verticalAlign=middle;whiteSpace=wrap;rounded=0;" parent="1" vertex="1">
          <mxGeometry x="1480" y="610" width="120" height="20" as="geometry" />
        </mxCell>
        <mxCell id="19Rnll7qSKjT185mRO9F-1" value="&lt;strong style=&quot;box-sizing: border-box ; font-family: &amp;#34;open sans&amp;#34; , &amp;#34;clear sans&amp;#34; , &amp;#34;helvetica neue&amp;#34; , &amp;#34;helvetica&amp;#34; , &amp;#34;arial&amp;#34; , sans-serif ; font-size: 16px&quot;&gt;&lt;span class=&quot;md-plain&quot; style=&quot;box-sizing: border-box&quot;&gt;Coordinator&lt;/span&gt;&lt;/strong&gt;" style="shape=umlLifeline;perimeter=lifelinePerimeter;whiteSpace=wrap;html=1;container=1;collapsible=0;recursiveResize=0;outlineConnect=0;fillColor=#f8cecc;strokeColor=#b85450;" vertex="1" parent="1">
          <mxGeometry x="42" y="920" width="130" height="640" as="geometry" />
        </mxCell>
        <mxCell id="19Rnll7qSKjT185mRO9F-2" value="&lt;span style=&quot;font-family: sans-serif&quot;&gt;&lt;b&gt;&lt;font style=&quot;font-size: 16px&quot;&gt;Cohort1&lt;/font&gt;&lt;/b&gt;&lt;/span&gt;" style="shape=umlLifeline;perimeter=lifelinePerimeter;whiteSpace=wrap;html=1;container=1;collapsible=0;recursiveResize=0;outlineConnect=0;fillColor=#d5e8d4;strokeColor=#82b366;" vertex="1" parent="1">
          <mxGeometry x="282" y="920" width="130" height="640" as="geometry" />
        </mxCell>
        <mxCell id="19Rnll7qSKjT185mRO9F-3" value="" style="html=1;points=[];perimeter=orthogonalPerimeter;" vertex="1" parent="19Rnll7qSKjT185mRO9F-2">
          <mxGeometry x="60" y="90" width="10" height="50" as="geometry" />
        </mxCell>
        <mxCell id="19Rnll7qSKjT185mRO9F-4" value="" style="html=1;points=[];perimeter=orthogonalPerimeter;" vertex="1" parent="19Rnll7qSKjT185mRO9F-2">
          <mxGeometry x="60" y="300" width="10" height="50" as="geometry" />
        </mxCell>
        <mxCell id="19Rnll7qSKjT185mRO9F-5" value="&lt;b style=&quot;font-family: sans-serif&quot;&gt;&lt;font style=&quot;font-size: 16px&quot;&gt;Cohort2&lt;/font&gt;&lt;/b&gt;" style="shape=umlLifeline;perimeter=lifelinePerimeter;whiteSpace=wrap;html=1;container=1;collapsible=0;recursiveResize=0;outlineConnect=0;fillColor=#d5e8d4;strokeColor=#82b366;" vertex="1" parent="1">
          <mxGeometry x="522" y="920" width="130" height="640" as="geometry" />
        </mxCell>
        <mxCell id="19Rnll7qSKjT185mRO9F-6" value="" style="html=1;points=[];perimeter=orthogonalPerimeter;" vertex="1" parent="19Rnll7qSKjT185mRO9F-5">
          <mxGeometry x="60" y="180" width="10" height="50" as="geometry" />
        </mxCell>
        <mxCell id="19Rnll7qSKjT185mRO9F-7" value="" style="html=1;points=[];perimeter=orthogonalPerimeter;" vertex="1" parent="19Rnll7qSKjT185mRO9F-5">
          <mxGeometry x="60" y="390" width="10" height="45" as="geometry" />
        </mxCell>
        <mxCell id="19Rnll7qSKjT185mRO9F-8" value="Prepare" style="html=1;verticalAlign=bottom;endArrow=block;entryX=0;entryY=0;" edge="1" parent="1" source="19Rnll7qSKjT185mRO9F-1" target="19Rnll7qSKjT185mRO9F-3">
          <mxGeometry relative="1" as="geometry">
            <mxPoint x="252" y="1010" as="sourcePoint" />
          </mxGeometry>
        </mxCell>
        <mxCell id="19Rnll7qSKjT185mRO9F-9" value="Success" style="html=1;verticalAlign=bottom;endArrow=open;dashed=1;endSize=8;exitX=0;exitY=0.95;" edge="1" parent="1" source="19Rnll7qSKjT185mRO9F-3" target="19Rnll7qSKjT185mRO9F-1">
          <mxGeometry relative="1" as="geometry">
            <mxPoint x="252" y="1086" as="targetPoint" />
          </mxGeometry>
        </mxCell>
        <mxCell id="19Rnll7qSKjT185mRO9F-10" value="提交检查，超时中止" style="text;html=1;strokeColor=none;fillColor=none;align=center;verticalAlign=middle;whiteSpace=wrap;rounded=0;" vertex="1" parent="1">
          <mxGeometry x="352" y="1020" width="118" height="20" as="geometry" />
        </mxCell>
        <mxCell id="19Rnll7qSKjT185mRO9F-11" value="Prepare" style="html=1;verticalAlign=bottom;endArrow=block;entryX=0;entryY=0;" edge="1" parent="1" source="19Rnll7qSKjT185mRO9F-1" target="19Rnll7qSKjT185mRO9F-6">
          <mxGeometry relative="1" as="geometry">
            <mxPoint x="512" y="1090" as="sourcePoint" />
          </mxGeometry>
        </mxCell>
        <mxCell id="19Rnll7qSKjT185mRO9F-12" value="Success" style="html=1;verticalAlign=bottom;endArrow=open;dashed=1;endSize=8;exitX=0;exitY=0.95;" edge="1" parent="1" source="19Rnll7qSKjT185mRO9F-6" target="19Rnll7qSKjT185mRO9F-1">
          <mxGeometry relative="1" as="geometry">
            <mxPoint x="512" y="1166" as="targetPoint" />
          </mxGeometry>
        </mxCell>
        <mxCell id="19Rnll7qSKjT185mRO9F-14" value="Pre-Commit" style="html=1;verticalAlign=bottom;endArrow=block;entryX=0;entryY=0;" edge="1" parent="1" source="19Rnll7qSKjT185mRO9F-1" target="19Rnll7qSKjT185mRO9F-4">
          <mxGeometry relative="1" as="geometry">
            <mxPoint x="272" y="1215" as="sourcePoint" />
          </mxGeometry>
        </mxCell>
        <mxCell id="19Rnll7qSKjT185mRO9F-15" value="Success" style="html=1;verticalAlign=bottom;endArrow=open;dashed=1;endSize=8;exitX=0;exitY=0.95;" edge="1" parent="1" source="19Rnll7qSKjT185mRO9F-4" target="19Rnll7qSKjT185mRO9F-1">
          <mxGeometry relative="1" as="geometry">
            <mxPoint x="272" y="1291" as="targetPoint" />
          </mxGeometry>
        </mxCell>
        <mxCell id="19Rnll7qSKjT185mRO9F-17" value="Pre-Commit" style="html=1;verticalAlign=bottom;endArrow=block;entryX=0;entryY=0;" edge="1" parent="1" target="19Rnll7qSKjT185mRO9F-7">
          <mxGeometry relative="1" as="geometry">
            <mxPoint x="106.5" y="1310" as="sourcePoint" />
          </mxGeometry>
        </mxCell>
        <mxCell id="19Rnll7qSKjT185mRO9F-18" value="Success" style="html=1;verticalAlign=bottom;endArrow=open;dashed=1;endSize=8;exitX=0;exitY=0.95;" edge="1" parent="1" source="19Rnll7qSKjT185mRO9F-7" target="19Rnll7qSKjT185mRO9F-1">
          <mxGeometry relative="1" as="geometry">
            <mxPoint x="512" y="1386" as="targetPoint" />
          </mxGeometry>
        </mxCell>
        <mxCell id="19Rnll7qSKjT185mRO9F-20" value="" style="html=1;points=[];perimeter=orthogonalPerimeter;" vertex="1" parent="1">
          <mxGeometry x="342" y="1400" width="10" height="50" as="geometry" />
        </mxCell>
        <mxCell id="19Rnll7qSKjT185mRO9F-21" value="" style="html=1;points=[];perimeter=orthogonalPerimeter;" vertex="1" parent="1">
          <mxGeometry x="582" y="1490" width="10" height="45" as="geometry" />
        </mxCell>
        <mxCell id="19Rnll7qSKjT185mRO9F-22" value="Commit" style="html=1;verticalAlign=bottom;endArrow=block;entryX=0;entryY=0;" edge="1" parent="1" target="19Rnll7qSKjT185mRO9F-20">
          <mxGeometry relative="1" as="geometry">
            <mxPoint x="106.81034482758605" y="1399.9999999999998" as="sourcePoint" />
          </mxGeometry>
        </mxCell>
        <mxCell id="19Rnll7qSKjT185mRO9F-23" value="Success" style="html=1;verticalAlign=bottom;endArrow=open;dashed=1;endSize=8;exitX=0;exitY=0.95;" edge="1" parent="1" source="19Rnll7qSKjT185mRO9F-20">
          <mxGeometry relative="1" as="geometry">
            <mxPoint x="106.81034482758605" y="1447.4999999999998" as="targetPoint" />
          </mxGeometry>
        </mxCell>
        <mxCell id="19Rnll7qSKjT185mRO9F-24" value="提交操作、释放资源" style="text;html=1;strokeColor=none;fillColor=none;align=center;verticalAlign=middle;whiteSpace=wrap;rounded=0;" vertex="1" parent="1">
          <mxGeometry x="354" y="1413" width="120" height="20" as="geometry" />
        </mxCell>
        <mxCell id="19Rnll7qSKjT185mRO9F-25" value="Commit" style="html=1;verticalAlign=bottom;endArrow=block;entryX=0;entryY=0;" edge="1" parent="1" target="19Rnll7qSKjT185mRO9F-21">
          <mxGeometry relative="1" as="geometry">
            <mxPoint x="106.5" y="1490" as="sourcePoint" />
          </mxGeometry>
        </mxCell>
        <mxCell id="19Rnll7qSKjT185mRO9F-26" value="Success" style="html=1;verticalAlign=bottom;endArrow=open;dashed=1;endSize=8;exitX=0;exitY=0.95;" edge="1" parent="1" source="19Rnll7qSKjT185mRO9F-21">
          <mxGeometry relative="1" as="geometry">
            <mxPoint x="106.81034482758605" y="1532.75" as="targetPoint" />
          </mxGeometry>
        </mxCell>
        <mxCell id="19Rnll7qSKjT185mRO9F-27" value="提交操作、释放资源" style="text;html=1;strokeColor=none;fillColor=none;align=center;verticalAlign=middle;whiteSpace=wrap;rounded=0;" vertex="1" parent="1">
          <mxGeometry x="595" y="1500" width="120" height="20" as="geometry" />
        </mxCell>
        <mxCell id="19Rnll7qSKjT185mRO9F-28" value="提交检查，超时中止" style="text;html=1;strokeColor=none;fillColor=none;align=center;verticalAlign=middle;whiteSpace=wrap;rounded=0;" vertex="1" parent="1">
          <mxGeometry x="593" y="1113" width="118" height="20" as="geometry" />
        </mxCell>
        <mxCell id="19Rnll7qSKjT185mRO9F-30" value="写redo、undo日志、锁定资源、执行操作、不提交，超时成功自动提交" style="text;html=1;strokeColor=none;fillColor=none;align=center;verticalAlign=middle;whiteSpace=wrap;rounded=0;" vertex="1" parent="1">
          <mxGeometry x="354" y="1240" width="206" height="20" as="geometry" />
        </mxCell>
        <mxCell id="19Rnll7qSKjT185mRO9F-31" value="写redo、undo日志、锁定资源、执行操作、不提交，超时成功自动提交" style="text;html=1;strokeColor=none;fillColor=none;align=center;verticalAlign=middle;whiteSpace=wrap;rounded=0;" vertex="1" parent="1">
          <mxGeometry x="593" y="1320" width="206" height="20" as="geometry" />
        </mxCell>
      </root>
    </mxGraphModel>
  </diagram>
</mxfile>
